# xmcd CD database file
#
# Track frame offsets:
#	150
#	36932
#	57909
#	84079
#	101451
#	118247
#	151241
#	172747
#
# Disc length: 2482 seconds
#
# Revision: 0
# Processed by: cddbd v1.5.1PL0 Copyright (c) Steve Scherf et al.
# Submitted via: CDex 1.51
#
DISCID=5509b008
DTITLE=Stephan Holstein - Jazz Clarinet
DYEAR=1999
DGENRE=Jazz
TTITLE0=I got rhythm
TTITLE1=lullaby in rhythm
TTITLE2=memories of you
TTITLE3=village dance
TTITLE4=slipped disc
TTITLE5=old folks
TTITLE6=dizzi spells
TTITLE7=goodbye
EXTD=YEAR: 1999
EXTT0=
EXTT1=
EXTT2=
EXTT3=
EXTT4=
EXTT5=
EXTT6=
EXTT7=
PLAYORDER=
